<?xml version="1.0" standalone="no"?>
<!DOCTYPE svg PUBLIC "-//W3C//DTD SVG 20010904//EN"
 "http://www.w3.org/TR/2001/REC-SVG-20010904/DTD/svg10.dtd">
<svg version="1.0" xmlns="http://www.w3.org/2000/svg"
 width="972.000000pt" height="362.000000pt" viewBox="0 0 972.000000 362.000000"
 preserveAspectRatio="xMidYMid meet">

<g transform="translate(0.000000,362.000000) scale(0.100000,-0.100000)"
fill="#000000" stroke="none">
<path d="M3785 3368 c-71 -4 -173 -10 -225 -13 -256 -13 -537 -36 -615 -51
-16 -3 -38 -6 -47 -8 -10 -1 -21 -5 -24 -9 -4 -4 -22 -7 -40 -7 -38 0 -221
-36 -249 -49 -11 -6 -40 -14 -65 -20 -60 -13 -107 -26 -150 -42 -108 -40 -352
-160 -440 -218 -31 -20 -51 -32 -117 -71 -29 -17 -53 -36 -53 -40 0 -5 -17
-24 -37 -42 -21 -18 -54 -49 -74 -68 -20 -19 -53 -51 -75 -71 -49 -45 -94
-100 -94 -114 0 -6 -13 -24 -28 -41 -16 -16 -38 -50 -51 -76 -12 -25 -28 -51
-35 -58 -8 -6 -12 -20 -9 -30 4 -14 0 -20 -10 -20 -10 0 -13 -6 -10 -20 3 -12
-1 -22 -11 -26 -9 -3 -16 -16 -16 -28 0 -12 -9 -40 -19 -62 -10 -21 -29 -73
-41 -114 -12 -41 -26 -79 -30 -85 -5 -5 -13 -32 -18 -60 -6 -27 -20 -81 -32
-120 -12 -38 -26 -97 -32 -130 -6 -33 -16 -67 -23 -75 -25 -31 -43 -86 -41
-120 2 -23 -3 -42 -14 -55 -10 -11 -20 -36 -23 -56 -2 -20 -8 -43 -13 -51 -11
-19 -100 -88 -113 -88 -5 0 -22 -11 -38 -24 -15 -13 -41 -31 -58 -40 -16 -9
-48 -30 -70 -47 -22 -16 -70 -49 -107 -73 -228 -151 -415 -344 -480 -495 -20
-48 -23 -150 -5 -186 17 -34 78 -105 90 -105 7 0 23 -8 37 -17 13 -9 34 -17
47 -18 13 0 28 -7 32 -14 5 -8 11 -9 15 -3 3 5 16 7 28 5 26 -5 164 42 189 63
8 8 23 14 32 14 15 0 124 81 139 104 4 6 12 11 17 11 19 0 161 179 183 232 6
16 10 32 9 37 -1 5 2 12 7 15 14 9 82 156 82 177 0 11 6 28 14 39 7 11 28 74
46 140 18 66 36 128 41 137 5 10 9 26 9 36 0 25 40 61 100 88 8 4 30 18 48 31
18 13 41 26 52 28 22 4 82 36 91 48 3 4 56 28 118 52 62 25 120 49 129 54 44
22 106 45 148 55 12 2 39 9 59 15 45 12 45 12 -65 -66 -116 -84 -139 -109
-205 -226 -9 -15 -19 -50 -22 -78 -5 -43 -3 -53 18 -75 13 -14 44 -36 69 -48
59 -28 165 -27 279 3 93 24 211 76 211 91 0 6 8 10 18 10 9 0 35 11 57 24 66
40 126 69 131 63 3 -2 -6 -20 -19 -40 -63 -93 -60 -131 15 -177 59 -36 114
-41 186 -16 23 8 42 12 42 9 0 -4 5 -2 12 5 7 7 19 12 28 12 56 1 275 147 389
260 73 72 127 179 115 227 -9 36 -60 63 -119 64 l-50 0 55 26 c30 13 68 26 85
27 21 1 34 10 45 28 21 38 6 49 -80 54 -103 7 -202 -20 -261 -72 -8 -8 -21
-14 -27 -14 -7 0 -12 -4 -12 -10 0 -5 -6 -10 -13 -10 -6 0 -40 -24 -74 -54
-34 -29 -76 -64 -95 -76 -18 -13 -46 -38 -63 -56 -31 -34 -108 -75 -298 -159
-59 -26 -139 -62 -178 -81 -38 -19 -76 -34 -85 -34 -8 0 -27 -6 -42 -14 -15
-8 -56 -17 -92 -21 -54 -6 -68 -4 -79 9 -18 21 -9 72 23 139 44 89 46 90 133
92 43 1 92 5 108 9 71 17 142 42 164 58 13 10 35 18 49 18 27 0 127 45 153 70
9 8 30 22 46 31 31 17 103 112 103 137 0 7 -10 16 -22 21 -28 10 -213 9 -224
-1 -4 -4 -13 -3 -19 2 -19 15 -172 -8 -245 -38 -8 -3 -22 -7 -30 -8 -52 -7
-162 -35 -196 -49 -21 -9 -57 -18 -79 -21 -22 -3 -64 -16 -93 -30 -29 -13 -60
-24 -70 -24 -9 0 -30 -7 -45 -15 -16 -8 -38 -16 -50 -18 -21 -3 -122 -48 -229
-102 -42 -21 -47 -22 -50 -7 -2 9 4 31 13 48 9 17 20 54 24 82 4 29 11 54 15
57 4 3 11 28 15 55 4 28 11 47 16 44 5 -3 9 5 9 18 0 13 9 57 21 98 11 41 21
82 23 90 9 36 96 261 127 325 50 107 133 238 186 297 177 194 296 284 525 399
78 40 155 81 170 91 14 10 37 18 50 18 13 0 33 7 44 15 10 8 28 15 40 15 11 0
48 11 81 25 34 13 101 32 149 41 49 9 98 20 109 25 22 9 137 25 260 34 44 4
82 8 85 10 3 2 43 6 89 9 46 4 88 9 92 12 5 3 89 7 186 9 98 3 207 7 243 9
154 12 426 16 439 7 11 -7 1 -16 -44 -38 -32 -15 -59 -32 -60 -38 0 -5 18 -14
40 -21 31 -8 47 -8 70 1 70 29 102 38 143 40 53 3 82 28 81 69 0 33 -37 71
-81 84 -34 9 -442 10 -593 0z m-1454 -1738 c-19 -16 -37 -28 -40 -27 -3 0 -27
-8 -52 -20 -25 -11 -63 -26 -85 -33 -21 -7 -43 -16 -49 -20 -5 -4 -28 -11 -49
-15 -34 -6 -38 -5 -28 8 7 8 26 17 43 21 17 3 43 14 57 24 29 20 164 78 197
85 39 9 40 6 6 -23z m544 -81 c12 -18 56 -30 70 -19 7 6 20 7 30 4 9 -4 20 -2
24 3 9 15 59 25 66 14 3 -6 -4 -29 -15 -53 -29 -62 -194 -229 -244 -247 -6 -2
-13 -8 -16 -12 -12 -18 -185 -99 -235 -110 -59 -13 -105 -6 -105 16 0 7 27 54
59 102 68 102 201 231 289 280 64 36 68 37 77 22z m-1941 -565 c-31 -65 -60
-140 -65 -166 -4 -26 -19 -63 -33 -81 -14 -19 -31 -49 -38 -68 -13 -38 -72
-119 -148 -202 -49 -53 -172 -127 -210 -127 -19 1 -55 29 -68 56 -18 34 -6
148 21 206 29 63 109 165 165 210 132 108 323 248 338 248 5 1 27 16 49 35 26
22 41 30 43 21 2 -7 -23 -66 -54 -132z"/>
<path d="M5784 3048 c-16 -17 -65 -58 -109 -91 -191 -147 -468 -405 -574 -537
-44 -54 -181 -206 -253 -282 -10 -10 -18 -20 -18 -22 0 -3 -26 -31 -57 -64
-32 -33 -83 -90 -113 -127 -30 -38 -72 -87 -93 -109 -20 -23 -47 -55 -60 -72
-26 -37 -63 -85 -133 -174 -29 -36 -62 -84 -74 -107 -12 -24 -25 -43 -29 -43
-3 0 -19 -27 -36 -60 -16 -33 -36 -60 -43 -60 -8 0 -26 -7 -40 -15 -32 -17
-205 -89 -281 -117 -38 -14 -65 -17 -97 -12 -52 7 -58 14 -50 57 6 31 21 58
152 257 86 132 100 163 86 194 -9 20 -17 24 -44 22 -32 -3 -108 -41 -108 -55
0 -4 -30 -24 -67 -44 -63 -35 -125 -83 -243 -185 -25 -22 -63 -52 -85 -66 -22
-15 -42 -30 -45 -34 -3 -4 -12 -11 -21 -17 -9 -5 -34 -22 -55 -36 -21 -15 -52
-30 -67 -33 l-28 -7 17 28 c24 38 218 229 293 288 69 54 91 83 91 120 0 23 -3
25 -48 25 l-49 0 -169 -167 c-195 -194 -232 -237 -294 -348 -27 -49 -25 -61
15 -88 35 -24 37 -24 97 -10 61 14 108 38 183 94 22 17 77 54 122 84 44 30 84
59 88 65 3 5 32 28 63 49 31 22 72 53 90 70 18 17 35 31 38 31 6 0 -37 -84
-46 -90 -19 -13 -83 -155 -87 -194 -5 -39 -2 -48 22 -70 76 -71 184 -49 462
90 l83 41 -8 -26 c-13 -47 -5 -94 20 -113 40 -31 88 -39 133 -23 22 8 52 14
67 15 15 0 29 4 32 9 3 4 20 11 38 14 44 7 240 94 255 114 6 8 16 12 21 9 12
-7 119 57 154 94 40 42 35 28 -13 -35 -44 -58 -79 -141 -71 -165 11 -32 44
-53 85 -53 53 0 139 13 152 23 6 4 28 13 50 20 82 26 237 94 242 106 2 7 11
10 19 7 14 -5 134 61 170 95 11 10 29 21 41 24 l22 6 -20 -27 c-21 -29 -38
-87 -39 -133 0 -18 13 -39 41 -67 63 -61 123 -65 303 -20 87 22 206 74 206 89
0 6 7 10 15 10 15 0 34 9 134 65 24 14 50 25 58 25 7 0 41 20 76 44 34 24 73
47 87 51 28 8 31 13 -74 -100 -20 -22 -44 -52 -52 -66 -9 -14 -29 -34 -45 -45
-50 -33 -64 -114 -20 -114 9 0 21 -4 27 -10 10 -10 90 39 144 90 18 16 36 30
41 30 4 0 27 17 49 38 88 80 271 228 345 278 94 63 89 62 80 18 -4 -21 -9 -61
-11 -89 -3 -27 -7 -66 -10 -85 -13 -80 -7 -127 21 -174 43 -74 65 -86 156 -86
87 0 173 15 205 37 20 13 22 11 34 -17 7 -16 20 -30 29 -30 9 0 21 -4 27 -10
10 -10 94 42 141 88 15 15 42 36 58 46 17 11 39 27 50 38 43 39 95 84 117 100
29 21 158 128 176 145 7 7 18 13 24 13 5 0 23 11 40 25 38 32 52 32 44 0 -4
-14 -9 -51 -12 -83 -3 -31 -7 -73 -10 -92 -16 -114 -9 -141 52 -209 l46 -51
83 0 c98 0 180 15 215 40 14 10 44 27 68 39 l43 22 45 -45 c66 -66 124 -71
308 -25 85 22 206 73 206 88 0 5 13 12 28 16 15 3 43 15 62 27 55 34 103 58
117 58 7 0 41 19 76 43 34 24 80 50 102 58 27 10 43 23 49 42 13 36 3 43 -38
23 -19 -9 -39 -16 -46 -16 -6 0 -48 -18 -93 -39 -168 -81 -236 -111 -246 -111
-5 0 -47 -19 -93 -42 -46 -23 -94 -44 -107 -46 -13 -1 -36 -9 -51 -17 -15 -8
-36 -14 -46 -13 -10 0 -47 -3 -81 -7 -71 -9 -80 -1 -66 56 6 22 19 39 36 47
26 13 39 52 17 52 -17 0 -11 15 20 50 29 32 33 34 107 35 43 1 92 5 108 9 71
17 142 42 164 58 13 10 35 18 48 18 24 0 92 27 103 40 3 4 12 10 20 13 80 38
170 131 170 178 0 38 -26 44 -133 31 -56 -6 -129 -18 -162 -27 -94 -25 -230
-91 -350 -170 -145 -96 -183 -136 -254 -265 -28 -52 -124 -92 -275 -114 -95
-14 -119 -9 -144 33 -18 30 -18 71 2 186 20 118 24 157 16 190 -10 42 -11 44
-36 49 -11 2 -23 5 -29 6 -30 7 -57 -4 -95 -35 -23 -19 -47 -35 -54 -35 -6 0
-17 -9 -24 -20 -7 -12 -16 -18 -21 -16 -5 3 -17 -4 -27 -16 -18 -19 -107 -90
-142 -113 -9 -5 -27 -20 -41 -32 -14 -12 -27 -20 -29 -18 -6 6 167 169 187
176 9 4 34 26 54 49 28 30 37 49 35 68 -5 44 -41 37 -116 -25 -72 -59 -207
-187 -232 -220 -34 -45 -124 -143 -131 -143 -5 0 -32 -11 -61 -24 -29 -13 -70
-30 -91 -36 -65 -20 -201 -37 -234 -28 -29 8 -60 41 -58 63 4 36 18 144 21
165 21 125 22 148 13 187 -8 29 -17 43 -32 47 -45 12 -77 5 -109 -23 -18 -15
-43 -31 -55 -35 -11 -4 -24 -13 -27 -21 -3 -8 -12 -15 -19 -15 -8 0 -22 -10
-33 -21 -10 -12 -43 -40 -73 -63 -128 -97 -166 -125 -174 -126 -4 0 31 37 79
83 48 45 95 90 103 100 9 9 21 17 28 17 18 0 93 77 93 95 0 21 -18 55 -30 55
-12 0 -132 -100 -206 -170 -47 -45 -66 -58 -82 -53 -15 3 -24 0 -28 -11 -3 -9
-10 -13 -15 -10 -10 6 -125 -42 -150 -63 -8 -7 -21 -13 -27 -13 -6 0 -45 -16
-86 -35 -42 -19 -79 -35 -84 -35 -4 0 -37 -16 -75 -35 -37 -19 -100 -46 -140
-59 -83 -29 -240 -45 -251 -27 -10 16 14 119 31 132 7 6 13 17 13 23 0 7 13
27 30 46 29 32 33 34 107 35 43 1 92 5 108 9 71 17 142 42 164 58 13 10 34 18
47 18 28 0 104 31 104 42 0 5 7 8 15 8 8 0 23 8 33 18 11 9 33 24 50 34 32 17
82 86 82 113 0 8 -9 24 -21 36 -22 22 -51 22 -169 4 -160 -25 -368 -129 -549
-275 -35 -27 -71 -50 -80 -50 -9 0 -33 -11 -53 -25 -20 -14 -46 -25 -58 -25
-11 0 -37 -11 -58 -24 -51 -32 -152 -78 -232 -106 -36 -13 -70 -27 -76 -32
-32 -24 -214 -59 -214 -42 0 5 16 32 35 59 19 28 42 65 51 83 10 17 21 32 25
32 3 0 60 52 125 116 66 64 154 143 197 176 75 58 77 60 77 102 0 45 -10 56
-49 56 -18 0 -71 -48 -109 -99 -13 -17 -28 -31 -33 -31 -5 0 -57 -46 -115
-102 -59 -58 -123 -111 -147 -122 -23 -10 -44 -21 -47 -25 -8 -9 -54 -32 -71
-34 -8 -2 -50 -24 -94 -49 -44 -26 -117 -60 -162 -77 -45 -17 -99 -39 -120
-49 -42 -21 -127 -42 -174 -42 -27 0 -29 2 -23 27 3 16 14 39 23 53 10 14 24
42 31 63 8 20 18 37 22 37 4 0 8 7 8 15 0 9 10 26 23 38 33 32 67 83 67 101 0
8 16 27 35 42 19 14 35 33 35 41 0 27 52 93 254 322 31 35 56 67 56 71 0 4 9
10 21 13 12 3 18 10 15 16 -4 5 2 12 11 15 10 3 24 18 31 34 6 16 49 66 93
113 267 276 422 429 527 518 34 29 62 59 62 67 0 8 6 14 13 14 6 0 26 13 43
28 73 63 85 72 94 72 6 0 10 4 10 9 0 5 20 21 43 35 77 44 105 77 99 114 -2
17 -8 32 -13 32 -5 0 -9 6 -9 13 0 27 -56 17 -86 -15z m464 -1406 c-18 -16
-76 -45 -128 -66 -52 -20 -103 -41 -112 -46 -10 -6 -25 -10 -33 -10 -9 0 -41
-9 -72 -20 l-57 -20 34 29 c19 16 48 32 63 35 16 3 41 14 55 24 49 33 220 98
265 101 13 1 9 -6 -15 -27z m2990 -1 c-18 -16 -73 -45 -123 -65 -49 -20 -99
-41 -110 -46 -11 -4 -33 -11 -50 -13 -16 -3 -39 -9 -50 -13 -20 -7 -20 -7 -1
14 11 12 25 22 33 22 7 0 43 15 80 34 94 47 204 89 246 95 4 1 -7 -12 -25 -28z"/>
<path d="M5693 2083 c-18 -7 -16 -30 4 -64 14 -23 25 -29 50 -29 30 0 33 3 33
30 0 49 -44 81 -87 63z"/>
<path d="M2435 1963 c-39 -13 -99 -35 -135 -47 -68 -24 -110 -46 -110 -58 0
-13 32 -38 41 -33 5 4 9 0 9 -8 0 -16 47 -30 55 -16 3 4 27 15 53 25 26 10 54
23 62 29 22 18 109 45 124 39 7 -3 24 7 39 22 22 21 25 30 16 46 -7 14 -17 18
-31 14 -12 -3 -28 -1 -37 4 -11 5 -41 -1 -86 -17z"/>
</g>
</svg>
